<svg width="140" height="140" viewBox="0 0 140 140" fill="none" xmlns="http://www.w3.org/2000/svg">
<path d="M117.605 52.5H22.3945C17.5546 52.5 17.3086 55.0156 17.582 58.1055L21.1367 108.145C21.3828 111.207 22.0937 113.75 26.9062 113.75H113.367C118.289 113.75 118.863 111.234 119.137 108.145L122.445 57.4766C122.691 54.4141 122.445 52.5 117.605 52.5Z" fill="#45ACFF"/>
<path d="M116.539 39.1836C116.402 35.793 115.309 35 112.41 35C112.41 35 79.2148 35 73.2539 35C67.293 35 66.582 35.082 62.0703 30.2422C58.3242 26.1953 59.8008 26.25 52.0625 26.25C45.8828 26.25 31.4727 26.25 31.4727 26.25C26.7148 26.25 25.0195 25.8398 24.582 30.7891C24.4379 32.3939 24.2262 34.8026 24.0063 37.3254C23.4992 43.1432 28.0773 48.125 33.917 48.125H108.024C112.896 48.125 116.777 44.0495 116.539 39.1836Z" fill="#45ACFF"/>
</svg>
