<svg width="24" height="24" viewBox="0 0 24 24" fill="none" xmlns="http://www.w3.org/2000/svg">
<path d="M23.8551 11.4675L12.9801 0.967454C12.9079 0.897158 12.822 0.841362 12.7273 0.803286C12.6326 0.765209 12.5311 0.745605 12.4286 0.745605C12.326 0.745605 12.2245 0.765209 12.1298 0.803286C12.0352 0.841362 11.9493 0.897158 11.8771 0.967454L1.00206 11.4675C0.894272 11.5729 0.821257 11.7068 0.792226 11.8523C0.763194 11.9978 0.779446 12.1484 0.838932 12.285C0.897207 12.4219 0.996167 12.5392 1.12334 12.6219C1.25052 12.7047 1.40022 12.7492 1.55357 12.75H3.88393V22.4999C3.88393 22.6989 3.96577 22.8896 4.11145 23.0303C4.25712 23.1709 4.4547 23.25 4.66072 23.25H10.875C11.081 23.25 11.2786 23.1709 11.4243 23.0303C11.5699 22.8896 11.6518 22.6989 11.6518 22.4999V18H13.2054V22.4999C13.2054 22.6989 13.2872 22.8896 13.4329 23.0303C13.5785 23.1709 13.7761 23.25 13.9821 23.25H20.1964C20.4024 23.25 20.6 23.1709 20.7457 23.0303C20.8914 22.8896 20.9732 22.6989 20.9732 22.4999V12.75H23.3036C23.4569 12.7492 23.6066 12.7047 23.7338 12.6219C23.861 12.5392 23.9599 12.4219 24.0182 12.285C24.0777 12.1484 24.0939 11.9978 24.0649 11.8523C24.0359 11.7068 23.9629 11.5729 23.8551 11.4675ZM20.1964 11.25C19.9904 11.25 19.7928 11.329 19.6472 11.4696C19.5015 11.6103 19.4196 11.801 19.4196 12V21.7499H14.7589V17.25C14.7589 17.051 14.6771 16.8603 14.5314 16.7196C14.3857 16.579 14.1882 16.5 13.9821 16.5H10.875C10.669 16.5 10.4714 16.579 10.3257 16.7196C10.1801 16.8603 10.0982 17.051 10.0982 17.25V21.7499H5.4375V12C5.4375 11.801 5.35566 11.6103 5.20999 11.4696C5.06431 11.329 4.86673 11.25 4.66072 11.25H3.42563L12.4286 2.55745L21.4315 11.25H20.1964Z" fill="#626262"/>
</svg>
