<svg width="163" height="156" viewBox="0 0 163 156" fill="none" xmlns="http://www.w3.org/2000/svg">
<path d="M172.09 82.5033H169.455V74.0057V43.7975C169.455 33.9073 161.963 25.8609 152.756 25.8609H80.3414L31.4873 10.8685C31.4732 10.8644 31.4588 10.8621 31.4447 10.858C31.4303 10.8538 31.4166 10.8478 31.4022 10.844C31.3727 10.8361 31.3435 10.8323 31.3143 10.8255C31.269 10.8153 31.2236 10.8047 31.1783 10.7968C31.1371 10.7896 31.0967 10.7851 31.0556 10.7798C31.0078 10.7738 30.9603 10.7685 30.9128 10.7655C30.8742 10.7632 30.8358 10.7628 30.7972 10.7621C30.7479 10.7613 30.6991 10.7609 30.6502 10.7632C30.614 10.7647 30.5778 10.7685 30.5419 10.7715C30.4917 10.776 30.4414 10.7809 30.3918 10.7889C30.3581 10.7942 30.3247 10.801 30.2913 10.8074C30.2399 10.8172 30.1893 10.8278 30.139 10.841C30.1078 10.8493 30.0772 10.8587 30.0462 10.8682C29.9949 10.884 29.9443 10.9003 29.8937 10.9191C29.8652 10.9301 29.8371 10.9418 29.8086 10.9539C29.7576 10.975 29.707 10.9973 29.6574 11.0219C29.631 11.0351 29.6054 11.0494 29.5794 11.0634C29.5298 11.0902 29.4809 11.1174 29.4331 11.148C29.4081 11.1635 29.3842 11.1801 29.3596 11.1967C29.3125 11.2284 29.2661 11.2609 29.2211 11.296C29.1976 11.3141 29.1747 11.3338 29.1515 11.353C29.1083 11.3889 29.0654 11.4255 29.0242 11.4644C29.001 11.4863 28.9789 11.5093 28.9564 11.532C28.9177 11.5713 28.8794 11.6105 28.8428 11.6521C28.82 11.6781 28.7985 11.7053 28.7764 11.7325C28.743 11.7737 28.7099 11.8152 28.6787 11.8586C28.6562 11.89 28.6351 11.9221 28.6136 11.9542C28.5858 11.9961 28.5584 12.0384 28.5331 12.0818C28.5113 12.1188 28.4913 12.1573 28.4712 12.1954C28.4491 12.2374 28.4269 12.2796 28.4069 12.3231C28.3872 12.3654 28.3696 12.4088 28.3517 12.4522C28.3341 12.4949 28.3169 12.5376 28.3014 12.5814C28.2853 12.6274 28.2712 12.6746 28.2568 12.7222C28.2476 12.7528 28.2364 12.7815 28.228 12.8124C28.2237 12.8279 28.222 12.843 28.2181 12.8581C28.2142 12.8736 28.2086 12.8883 28.2051 12.9038L25.1901 25.8602H16.7009C7.51147 25.8602 0.0330468 33.874 0.00281249 43.737C0.00246093 43.7574 0 43.7767 0 43.7967V141.974C0 143.537 1.18476 144.806 2.63671 144.806C4.09218 144.806 5.27343 143.537 5.27343 141.974V56.8591C8.26311 59.8785 12.2829 61.734 16.7009 61.734H152.756C152.759 61.734 152.762 61.7336 152.765 61.7336C159.061 61.7389 164.181 67.2421 164.181 74.0061V93.8318H135.173C135.172 93.8318 135.17 93.8322 135.169 93.8322C135.092 93.8322 135.016 93.8371 134.941 93.8443C134.857 93.8522 134.774 93.865 134.692 93.8813C134.68 93.8835 134.668 93.8847 134.656 93.8873C134.587 93.902 134.519 93.9217 134.452 93.9421C134.437 93.9466 134.422 93.9496 134.408 93.9545C134.348 93.9742 134.29 93.9976 134.232 94.0214C134.21 94.0304 134.187 94.038 134.165 94.0478C134.117 94.0693 134.07 94.0946 134.023 94.1192C133.992 94.135 133.961 94.1497 133.931 94.1667C133.894 94.1875 133.86 94.2113 133.824 94.2339C133.785 94.2589 133.746 94.283 133.708 94.3102C133.682 94.3283 133.659 94.3491 133.634 94.3684C133.589 94.4031 133.544 94.4375 133.501 94.4756C133.482 94.4922 133.465 94.5107 133.447 94.5277C133.401 94.5708 133.355 94.6134 133.311 94.6603C133.286 94.6878 133.262 94.718 133.238 94.7467C133.204 94.7864 133.169 94.8253 133.136 94.8676C133.082 94.9389 133.031 95.0129 132.983 95.0896C132.982 95.0907 132.981 95.0922 132.98 95.0938L118.919 117.75C118.821 117.908 118.738 118.075 118.672 118.25C118.647 118.314 118.627 118.381 118.607 118.446C118.601 118.466 118.593 118.486 118.587 118.506C118.568 118.575 118.553 118.646 118.538 118.716C118.534 118.735 118.529 118.753 118.526 118.771C118.514 118.835 118.507 118.899 118.499 118.962C118.496 118.99 118.491 119.017 118.489 119.044C118.484 119.097 118.483 119.149 118.481 119.201C118.479 119.241 118.476 119.282 118.476 119.322C118.476 119.361 118.479 119.4 118.481 119.439C118.482 119.492 118.484 119.546 118.489 119.6C118.491 119.626 118.496 119.652 118.499 119.678C118.507 119.743 118.514 119.808 118.526 119.872C118.529 119.89 118.534 119.908 118.538 119.925C118.553 119.996 118.568 120.067 118.588 120.138C118.593 120.158 118.601 120.177 118.607 120.198C118.627 120.263 118.647 120.329 118.672 120.394C118.738 120.568 118.821 120.736 118.92 120.894L132.981 143.547C132.982 143.548 132.982 143.549 132.983 143.55C133.04 143.64 133.102 143.726 133.167 143.809C133.188 143.836 133.211 143.862 133.234 143.887C133.278 143.94 133.325 143.99 133.373 144.039C133.401 144.068 133.429 144.096 133.458 144.123C133.509 144.17 133.563 144.214 133.617 144.257C133.642 144.276 133.665 144.297 133.69 144.315C133.769 144.373 133.851 144.427 133.936 144.475C133.957 144.487 133.98 144.497 134.001 144.508C134.068 144.545 134.137 144.578 134.208 144.608C134.235 144.62 134.263 144.63 134.291 144.641C134.358 144.667 134.426 144.689 134.496 144.709C134.524 144.717 134.552 144.726 134.581 144.733C134.652 144.751 134.725 144.764 134.798 144.776C134.825 144.78 134.851 144.786 134.878 144.789C134.969 144.8 135.061 144.806 135.154 144.807C135.162 144.807 135.169 144.808 135.177 144.808C135.178 144.808 135.18 144.808 135.182 144.808H164.183V164.635C164.183 171.403 159.057 176.908 152.757 176.908H16.7024C10.4024 176.908 5.27659 171.403 5.27659 164.635C5.27659 164.62 5.27483 164.606 5.27448 164.591V153.303C5.27448 151.744 4.09323 150.471 2.63777 150.471C1.18582 150.471 0.00105469 151.744 0.00105469 153.303V164.635C0.00105469 164.665 0.00421874 164.693 0.00527343 164.722C0.0492187 174.572 7.52167 182.572 16.7024 182.572H152.757C161.964 182.572 169.455 174.527 169.456 164.638C169.456 164.638 169.456 164.637 169.456 164.637V144.808H172.091C176.452 144.808 180 140.997 180 136.313V90.9979C179.999 86.3141 176.451 82.5033 172.09 82.5033ZM32.6601 17.119L79.1854 31.3973C79.1875 31.3981 79.19 31.3985 79.1921 31.3992L110.374 40.9685H27.1103L32.6601 17.119ZM164.181 60.9429C161.192 57.9244 157.173 56.0692 152.756 56.0692C152.751 56.0692 152.747 56.0699 152.742 56.0699H16.7009C10.4006 56.0699 5.27483 50.5645 5.27483 43.7975C5.27483 37.0304 10.4006 31.525 16.7009 31.525H23.8721L21.6748 40.9685H16.7016C15.2455 40.9685 14.0649 42.2364 14.0649 43.8005C14.0649 45.3645 15.2455 46.6325 16.7016 46.6325H23.7244C23.728 46.6325 23.7318 46.6333 23.7357 46.6333C23.7385 46.6333 23.7413 46.6325 23.7438 46.6325H129.192C129.195 46.6325 129.198 46.6333 129.201 46.6333C129.204 46.6333 129.207 46.6325 129.21 46.6325H149.237C150.693 46.6325 151.874 45.3645 151.874 43.8005C151.874 42.2364 150.693 40.9685 149.237 40.9685H129.57L98.7977 31.525H152.755C159.055 31.525 164.181 37.0304 164.181 43.7975V60.9429ZM174.726 136.312C174.726 137.872 173.543 139.142 172.09 139.142H136.585L124.28 119.32L136.585 99.4955H172.09C172.127 99.4955 172.163 99.491 172.2 99.4894C173.084 99.4762 173.933 99.3071 174.726 99.0057V136.312ZM172.09 93.8284C172.072 93.8284 172.054 93.831 172.036 93.8314H169.455V88.1674H172.09C173.543 88.1674 174.726 89.4373 174.726 90.9979C174.726 92.5585 173.543 93.8284 172.09 93.8284Z" fill="white" fill-opacity="0.2"/>
<path d="M145.723 108.936C140.392 108.936 136.055 113.595 136.055 119.321C136.055 125.046 140.392 129.705 145.723 129.705C151.054 129.705 155.391 125.046 155.391 119.321C155.391 113.595 151.054 108.936 145.723 108.936ZM145.723 124.041C143.299 124.041 141.328 121.923 141.328 119.321C141.328 116.718 143.299 114.6 145.723 114.6C148.146 114.6 150.117 116.718 150.117 119.321C150.117 121.923 148.146 124.041 145.723 124.041Z" fill="white" fill-opacity="0.2"/>
</svg>
