<svg width="195" height="196" viewBox="0 0 195 196" fill="none" xmlns="http://www.w3.org/2000/svg">
<g clip-path="url(#clip0)">
<path d="M173.535 97.3095C173.53 97.2674 173.527 97.2247 173.52 97.1831C173.491 96.9757 173.451 96.7687 173.395 96.5643C173.395 96.5622 173.394 96.5602 173.393 96.5576C173.341 96.3666 173.274 96.1781 173.198 95.9917C173.177 95.9382 173.153 95.8869 173.13 95.8345C173.071 95.7 173.004 95.5674 172.932 95.437C172.901 95.38 172.871 95.323 172.837 95.267C172.819 95.2367 172.805 95.2054 172.786 95.1751C172.71 95.0544 172.626 94.9409 172.542 94.8284C172.526 94.8074 172.513 94.7853 172.497 94.7647C172.369 94.5983 172.23 94.4437 172.085 94.2974C172.058 94.2696 172.028 94.244 172 94.2173C171.873 94.0956 171.742 93.9815 171.606 93.8742C171.571 93.847 171.537 93.8198 171.501 93.7936C171.318 93.658 171.13 93.5316 170.933 93.4223L95.2712 50.4143L138.835 22.9824L211.868 64.4954L181.11 83.8637C178.71 85.3746 177.989 88.5459 179.501 90.9458C181.011 93.3463 184.182 94.0668 186.583 92.5554L224.6 68.6163C226.129 67.6543 227.039 65.9601 226.998 64.1544C226.958 62.3486 225.972 60.698 224.402 59.8054L141.237 12.5332C139.592 11.5975 137.565 11.6437 135.963 12.6519L82.5742 46.2708C82.5634 46.2774 82.5521 46.2846 82.5414 46.2913L55.8629 63.0907C55.8506 63.0984 55.8382 63.1062 55.8264 63.1139L2.40115 96.7558C0.872763 97.7178 -0.0377988 99.412 0.00328685 101.218C0.043859 103.023 1.0294 104.674 2.5999 105.567L85.7645 152.839C86.5524 153.287 87.4275 153.51 88.3021 153.51C89.2537 153.51 90.2038 153.246 91.0384 152.72L129.056 128.781C131.456 127.27 132.177 124.098 130.666 121.698C129.155 119.298 125.983 118.577 123.583 120.089L88.167 142.39L15.1336 100.876L58.6978 73.4438L136.591 117.72V176.36C136.591 178.231 137.607 179.953 139.245 180.857C140.019 181.284 140.873 181.496 141.727 181.496C142.679 181.496 143.629 181.232 144.463 180.706L171.176 163.885C172.669 162.945 173.575 161.304 173.575 159.539V97.9109C173.575 97.8806 173.57 97.8518 173.569 97.8215C173.566 97.651 173.555 97.4805 173.535 97.3095ZM146.863 167.058V114.732C146.863 112.885 145.87 111.181 144.264 110.268L68.5584 67.2353L85.4102 56.6233L158.443 98.1368L152.049 102.163C149.648 103.674 148.928 106.845 150.439 109.245C151.415 110.796 153.083 111.645 154.79 111.645C155.725 111.645 156.672 111.39 157.521 110.855L163.303 107.214V156.705L146.863 167.058Z" fill="white" fill-opacity="0.2"/>
<path d="M219.129 80.4668L181.111 104.406C178.711 105.917 177.99 109.088 179.501 111.488C180.477 113.039 182.146 113.888 183.852 113.888C184.787 113.888 185.734 113.633 186.584 113.098L224.601 89.1585C227.002 87.6475 227.722 84.4762 226.211 82.0763C224.7 79.6759 221.529 78.9548 219.129 80.4668Z" fill="white" fill-opacity="0.2"/>
<path d="M123.582 140.631L88.1658 162.933L7.67435 117.18C5.21023 115.779 2.07334 116.64 0.671803 119.107C-0.729732 121.573 0.132553 124.708 2.59872 126.11L85.7634 173.382C86.5512 173.83 87.4263 174.053 88.3009 174.053C89.2526 174.053 90.2027 173.788 91.0372 173.263L129.055 149.323C131.455 147.813 132.176 144.641 130.664 142.241C129.154 139.84 125.982 139.119 123.582 140.631Z" fill="white" fill-opacity="0.2"/>
<path d="M219.129 101.01L181.111 124.949C178.711 126.46 177.99 129.631 179.501 132.031C180.477 133.582 182.146 134.431 183.852 134.431C184.787 134.431 185.734 134.176 186.584 133.641L224.601 109.702C227.002 108.191 227.722 105.019 226.211 102.619C224.7 100.218 221.529 99.4979 219.129 101.01Z" fill="white" fill-opacity="0.2"/>
<path d="M123.582 161.174L88.1658 183.476L7.67435 137.723C5.21023 136.322 2.07334 137.183 0.671803 139.65C-0.729732 142.116 0.132553 145.251 2.59872 146.653L85.7634 193.925C86.5512 194.373 87.4263 194.596 88.3009 194.596C89.2526 194.596 90.2027 194.331 91.0372 193.806L129.055 169.866C131.455 168.356 132.176 165.184 130.664 162.784C129.154 160.383 125.982 159.662 123.582 161.174Z" fill="white" fill-opacity="0.2"/>
<path d="M219.129 121.552L181.111 145.492C178.711 147.003 177.99 150.174 179.501 152.574C180.477 154.125 182.146 154.974 183.852 154.974C184.787 154.974 185.734 154.718 186.584 154.183L224.601 130.244C227.002 128.733 227.722 125.562 226.211 123.162C224.7 120.762 221.529 120.041 219.129 121.552Z" fill="white" fill-opacity="0.2"/>
<path d="M123.582 181.717L88.1658 204.018L7.67435 158.266C5.21023 156.865 2.07334 157.726 0.671803 160.193C-0.729732 162.658 0.132553 165.794 2.59872 167.195L85.7634 214.467C86.5512 214.916 87.4263 215.139 88.3009 215.139C89.2526 215.139 90.2027 214.874 91.0372 214.349L129.055 190.409C131.455 188.898 132.176 185.727 130.664 183.327C129.154 180.926 125.982 180.205 123.582 181.717Z" fill="white" fill-opacity="0.2"/>
</g>
<defs>
<clipPath id="clip0">
<rect width="227" height="227" fill="white"/>
</clipPath>
</defs>
</svg>
