<svg version="1.1" xmlns="http://www.w3.org/2000/svg" xmlns:xlink="http://www.w3.org/1999/xlink" preserveAspectRatio="xMidYMid meet" viewBox="0 0 640 640" width="640" height="640"><defs><path d="M202.67 352L202.67 145.54L204.24 145.92L205.82 146.26L207.4 146.57L208.99 146.83L210.58 147.06L212.17 147.24L213.76 147.39L215.35 147.5L216.94 147.58L218.53 147.61L220.12 147.61L221.7 147.57L223.28 147.49L224.86 147.37L226.43 147.22L228 147.03L229.57 146.8L231.12 146.54L232.67 146.24L234.21 145.9L235.75 145.53L237.27 145.12L238.79 144.67L240.29 144.19L241.78 143.67L243.26 143.12L244.73 142.53L246.19 141.91L247.63 141.25L249.06 140.56L250.47 139.83L251.87 139.07L253.25 138.27L254.61 137.44L255.96 136.57L257.29 135.67L258.6 134.74L259.88 133.77L261.15 132.77L262.4 131.73L293.12 162.45L292.42 163.8L291.69 165.12L290.92 166.41L290.12 167.67L289.29 168.91L288.43 170.13L287.53 171.31L286.61 172.47L285.66 173.6L284.67 174.69L283.66 175.76L282.62 176.8L281.56 177.81L280.47 178.79L279.35 179.74L278.21 180.66L277.04 181.54L275.85 182.39L274.64 183.21L273.41 184L272.16 184.75L270.89 185.46L269.59 186.15L268.28 186.79L266.95 187.41L265.61 187.98L264.24 188.52L262.86 189.02L261.47 189.49L260.06 189.91L258.64 190.3L257.2 190.65L255.75 190.96L254.29 191.23L252.82 191.46L251.34 191.65L249.85 191.8L248.35 191.91L246.85 191.98L245.33 192L245.33 256L247.53 256.04L249.71 256.18L251.86 256.4L253.98 256.7L256.08 257.08L258.15 257.55L260.19 258.1L262.19 258.72L264.16 259.42L266.09 260.19L267.99 261.04L269.84 261.95L271.66 262.94L273.43 263.99L275.15 265.11L276.83 266.29L278.46 267.53L280.04 268.84L281.57 270.2L283.04 271.62L284.46 273.1L285.83 274.63L287.13 276.21L288.38 277.84L289.56 279.51L290.68 281.24L291.73 283.01L292.71 284.82L293.63 286.68L294.48 288.57L295.25 290.51L295.95 292.48L296.57 294.48L297.12 296.52L297.58 298.59L297.97 300.68L298.27 302.81L298.49 304.96L298.62 307.13L298.67 309.33L533.33 309.33L533.38 307.13L533.51 304.96L533.73 302.81L534.03 300.68L534.42 298.59L534.88 296.52L535.43 294.48L536.05 292.48L536.75 290.51L537.52 288.57L538.37 286.68L539.29 284.82L540.27 283.01L541.32 281.24L542.44 279.51L543.62 277.84L544.87 276.21L546.17 274.63L547.54 273.1L548.95 271.62L550.43 270.2L551.96 268.84L553.54 267.53L555.17 266.29L556.85 265.11L558.57 263.99L560.34 262.94L562.16 261.95L564.01 261.04L565.91 260.19L567.84 259.42L569.81 258.72L571.81 258.1L573.85 257.55L575.92 257.08L578.02 256.7L580.14 256.4L582.29 256.18L584.47 256.04L586.67 256L586.67 192L584.47 191.96L582.29 191.82L580.14 191.6L578.02 191.3L575.92 190.92L573.85 190.45L571.81 189.9L569.81 189.28L567.84 188.58L565.91 187.81L564.01 186.96L562.16 186.05L560.34 185.06L558.57 184.01L556.85 182.89L555.17 181.71L553.54 180.47L551.96 179.16L550.43 177.8L548.95 176.38L547.54 174.9L546.17 173.37L544.87 171.79L543.62 170.16L542.44 168.48L541.32 166.76L540.27 164.99L539.29 163.18L538.37 161.32L537.52 159.43L536.75 157.49L536.05 155.52L535.43 153.52L534.88 151.48L534.42 149.41L534.03 147.32L533.73 145.19L533.51 143.04L533.38 140.86L533.33 138.67L360 138.67L317.33 96L629.33 96L629.33 352L202.67 352Z" id="bI2lroFZ"></path><path d="M533.51 143.04L533.73 145.19L534.03 147.32L534.42 149.41L534.88 151.48L535.43 153.52L536.05 155.52L536.75 157.49L537.52 159.43L538.37 161.32L539.29 163.18L540.27 164.99L541.32 166.76L542.44 168.48L543.62 170.16L544.87 171.79L546.17 173.37L547.54 174.9L548.95 176.38L550.43 177.8L551.96 179.16L553.54 180.47L555.17 181.71L556.85 182.89L558.57 184.01L560.34 185.06L562.16 186.05L564.01 186.96L565.91 187.81L567.84 188.58L569.81 189.28L571.81 189.9L573.85 190.45L575.92 190.92L578.02 191.3L580.14 191.6L582.29 191.82L584.47 191.96L586.67 192L586.67 256L584.47 256.04L582.29 256.18L580.14 256.4L578.02 256.7L575.92 257.08L573.85 257.55L571.81 258.1L569.81 258.72L567.84 259.42L565.91 260.19L564.01 261.04L562.16 261.95L560.34 262.94L558.57 263.99L556.85 265.11L555.17 266.29L553.54 267.53L551.96 268.84L550.43 270.2L548.95 271.62L547.54 273.1L546.17 274.63L544.87 276.21L543.62 277.84L542.44 279.51L541.32 281.24L540.27 283.01L539.29 284.82L538.37 286.68L537.52 288.57L536.75 290.51L536.05 292.48L535.43 294.48L534.88 296.52L534.42 298.59L534.03 300.68L533.73 302.81L533.51 304.96L533.38 307.13L533.33 309.33L298.67 309.33L298.62 307.13L298.49 304.96L298.27 302.81L297.97 300.68L297.58 298.59L297.12 296.52L296.57 294.48L295.95 292.48L295.25 290.51L294.48 288.57L293.63 286.68L292.71 284.82L291.73 283.01L290.68 281.24L289.56 279.51L288.38 277.84L287.13 276.21L285.83 274.63L284.46 273.1L283.04 271.62L281.57 270.2L280.04 268.84L278.46 267.53L276.83 266.29L275.15 265.11L273.43 263.99L271.66 262.94L269.84 261.95L267.99 261.04L266.09 260.19L264.16 259.42L262.19 258.72L260.19 258.1L258.15 257.55L256.08 257.08L253.98 256.7L251.86 256.4L249.71 256.18L247.53 256.04L245.33 256L245.33 192L246.85 191.98L248.35 191.91L249.85 191.8L251.34 191.65L252.82 191.46L254.29 191.23L255.75 190.96L257.2 190.65L258.64 190.3L260.06 189.91L261.47 189.49L262.86 189.02L264.24 188.52L265.61 187.98L266.95 187.41L268.28 186.79L269.59 186.15L270.89 185.46L272.16 184.75L273.41 184L274.64 183.21L275.85 182.39L277.04 181.54L278.21 180.66L279.35 179.74L280.47 178.79L281.56 177.81L282.62 176.8L283.66 175.76L284.67 174.69L285.66 173.6L286.61 172.47L287.53 171.31L288.43 170.13L289.29 168.91L290.12 167.67L290.92 166.41L291.69 165.12L292.42 163.8L293.12 162.45L318.4 187.73L319.1 188.41L319.81 189.06L320.54 189.69L321.28 190.29L322.04 190.87L322.81 191.42L323.6 191.95L324.4 192.45L325.21 192.93L326.04 193.38L326.87 193.81L327.72 194.21L328.57 194.59L329.44 194.94L330.31 195.27L331.2 195.57L332.09 195.84L332.99 196.09L333.89 196.31L334.8 196.5L335.71 196.67L336.63 196.82L337.56 196.93L338.49 197.02L339.42 197.08L340.35 197.12L341.28 197.12L342.22 197.1L343.15 197.06L344.09 196.98L345.02 196.88L345.96 196.75L346.89 196.59L347.82 196.4L348.75 196.19L349.67 195.95L350.59 195.68L351.5 195.38L352.41 195.05L353.31 194.69L354.2 194.31L355.07 193.9L355.93 193.47L356.77 193.01L357.6 192.53L358.4 192.03L359.19 191.51L359.96 190.96L360.72 190.39L361.45 189.81L362.17 189.2L362.86 188.57L363.54 187.93L364.2 187.26L364.83 186.58L365.45 185.88L366.04 185.16L366.62 184.43L367.17 183.68L367.7 182.91L368.2 182.13L368.69 181.33L369.15 180.53L369.59 179.7L370 178.87L370.39 178.02L370.75 177.16L371.09 176.29L371.41 175.4L371.7 174.51L371.96 173.61L372.2 172.7L372.41 171.78L372.6 170.85L372.75 169.91L372.88 168.96L372.99 168.01L373.06 167.05L373.1 166.09L373.12 165.12L373.11 164.48L373.09 163.85L373.06 163.21L373.01 162.58L372.95 161.95L372.88 161.32L372.8 160.69L372.71 160.07L372.6 159.45L372.48 158.83L372.35 158.21L372.21 157.6L372.06 156.99L371.89 156.39L371.72 155.79L371.53 155.19L371.33 154.59L371.12 154L370.9 153.42L370.66 152.84L370.42 152.26L370.16 151.69L369.9 151.12L369.62 150.56L369.33 150L369.03 149.45L368.72 148.91L368.4 148.37L368.07 147.83L367.72 147.31L367.37 146.78L367.01 146.27L366.63 145.76L366.25 145.26L365.86 144.76L365.45 144.28L365.04 143.8L364.61 143.32L364.18 142.86L363.73 142.4L360 138.67L533.33 138.67L533.38 140.86L533.51 143.04ZM412.5 181.47L410.78 181.65L409.08 181.89L407.4 182.2L405.75 182.57L404.12 183.01L402.51 183.51L400.94 184.07L399.39 184.69L397.88 185.36L396.39 186.1L394.94 186.88L393.53 187.73L392.15 188.62L390.8 189.57L389.5 190.56L388.23 191.6L387.01 192.69L385.83 193.83L384.69 195.01L383.6 196.23L382.56 197.5L381.57 198.8L380.62 200.15L379.73 201.53L378.88 202.94L378.1 204.39L377.36 205.88L376.69 207.39L376.07 208.94L375.51 210.51L375.01 212.12L374.57 213.75L374.2 215.4L373.89 217.08L373.65 218.78L373.47 220.5L373.37 222.24L373.33 224L373.37 225.76L373.47 227.5L373.65 229.22L373.89 230.92L374.2 232.6L374.57 234.25L375.01 235.88L375.51 237.49L376.07 239.06L376.69 240.61L377.36 242.12L378.1 243.61L378.88 245.06L379.73 246.47L380.62 247.85L381.57 249.2L382.56 250.5L383.6 251.77L384.69 252.99L385.83 254.17L387.01 255.31L388.23 256.4L389.5 257.44L390.8 258.43L392.15 259.38L393.53 260.27L394.94 261.12L396.39 261.9L397.88 262.64L399.39 263.31L400.94 263.93L402.51 264.49L404.12 264.99L405.75 265.43L407.4 265.8L409.08 266.11L410.78 266.35L412.5 266.53L414.24 266.63L416 266.67L417.76 266.63L419.5 266.53L421.22 266.35L422.92 266.11L424.6 265.8L426.25 265.43L427.88 264.99L429.49 264.49L431.06 263.93L432.61 263.31L434.12 262.64L435.61 261.9L437.06 261.12L438.47 260.27L439.85 259.38L441.2 258.43L442.5 257.44L443.77 256.4L444.99 255.31L446.17 254.17L447.31 252.99L448.4 251.77L449.44 250.5L450.43 249.2L451.38 247.85L452.27 246.47L453.12 245.06L453.9 243.61L454.64 242.12L455.31 240.61L455.93 239.06L456.49 237.49L456.99 235.88L457.43 234.25L457.8 232.6L458.11 230.92L458.35 229.22L458.53 227.5L458.63 225.76L458.67 224L458.63 222.24L458.53 220.5L458.35 218.78L458.11 217.08L457.8 215.4L457.43 213.75L456.99 212.12L456.49 210.51L455.93 208.94L455.31 207.39L454.64 205.88L453.9 204.39L453.12 202.94L452.27 201.53L451.38 200.15L450.43 198.8L449.44 197.5L448.4 196.23L447.31 195.01L446.17 193.83L444.99 192.69L443.77 191.6L442.5 190.56L441.2 189.57L439.85 188.62L438.47 187.73L437.06 186.88L435.61 186.1L434.12 185.36L432.61 184.69L431.06 184.07L429.49 183.51L427.88 183.01L426.25 182.57L424.6 182.2L422.92 181.89L421.22 181.65L419.5 181.47L417.76 181.37L416 181.33L414.24 181.37L412.5 181.47Z" id="bXdJLSdya"></path><path d="M10.67 224L10.67 10.67L96 10.67L96 224L10.67 224Z" id="a1zgfzh9r9"></path><path d="M117.51 20.94L117.91 20.95L118.31 20.96L118.71 20.96L119.11 20.96L119.51 20.95L119.91 20.94L120.31 20.92L120.71 20.9L121.11 20.88L121.51 20.84L121.91 20.81L122.31 20.76L122.7 20.72L123.1 20.66L123.49 20.61L123.89 20.55L124.28 20.48L124.67 20.41L125.06 20.33L125.46 20.25L125.84 20.16L126.23 20.07L126.62 19.97L127.01 19.87L127.39 19.76L127.77 19.65L128.16 19.54L128.54 19.42L128.92 19.29L129.29 19.16L129.67 19.02L130.04 18.88L130.42 18.74L130.79 18.59L131.16 18.43L131.53 18.27L131.89 18.11L132.26 17.94L132.62 17.77L132.98 17.59L156.89 5.63L157.44 5.36L158 5.09L158.57 4.83L159.13 4.58L159.7 4.33L160.27 4.09L160.84 3.86L161.42 3.63L161.99 3.41L162.57 3.2L163.16 2.99L163.74 2.79L164.33 2.6L164.92 2.41L165.51 2.23L166.1 2.06L166.69 1.89L167.29 1.73L167.89 1.58L168.49 1.44L169.09 1.3L169.69 1.17L170.29 1.04L170.9 0.92L171.51 0.81L172.11 0.71L172.72 0.61L173.33 0.52L173.95 0.44L174.56 0.37L175.17 0.3L175.79 0.24L176.4 0.18L177.02 0.13L177.64 0.09L178.26 0.06L178.87 0.03L179.49 0.02L180.11 0L180.73 0L314.84 0L316.75 0.01L318.65 0.07L320.55 0.15L322.44 0.28L324.33 0.45L326.21 0.65L328.09 0.89L329.96 1.16L331.81 1.47L333.67 1.82L335.51 2.21L337.34 2.63L339.16 3.08L340.97 3.57L342.77 4.1L344.56 4.66L346.34 5.26L348.11 5.89L349.86 6.56L351.6 7.26L353.32 7.99L355.03 8.76L356.72 9.56L358.4 10.4L360.06 11.26L361.71 12.16L363.34 13.1L364.95 14.06L366.54 15.06L368.12 16.09L369.67 17.16L371.21 18.25L372.72 19.38L374.22 20.53L375.69 21.72L377.14 22.94L378.57 24.19L379.98 25.47L381.36 26.78L382.72 28.12L439.94 85.33L640 85.33L640 362.67L192 362.67L192 226.48L190.38 226.41L188.76 226.32L187.14 226.21L185.52 226.07L183.91 225.91L182.3 225.73L180.7 225.52L179.1 225.3L177.5 225.05L175.91 224.78L174.32 224.49L172.74 224.18L171.16 223.84L169.59 223.49L168.02 223.11L166.46 222.71L164.91 222.29L163.36 221.85L161.81 221.39L160.28 220.91L158.75 220.4L157.22 219.88L155.71 219.33L154.2 218.77L152.7 218.18L151.21 217.57L149.72 216.94L148.25 216.29L146.78 215.62L145.32 214.93L143.87 214.22L142.43 213.49L141 212.74L139.57 211.97L138.16 211.18L136.76 210.37L135.37 209.54L133.99 208.69L132.62 207.82L131.26 206.93L124.8 202.67L106.67 202.67L106.67 234.67L0 234.67L0 0L106.67 0L106.67 20.56L117.51 20.94ZM364.42 128L544 128L544 138.67L544.04 140.43L544.14 142.17L544.32 143.89L544.56 145.59L544.87 147.26L545.24 148.92L545.68 150.55L546.18 152.15L546.73 153.73L547.35 155.27L548.03 156.79L548.76 158.27L549.55 159.72L550.39 161.14L551.29 162.52L552.23 163.86L553.23 165.17L554.27 166.43L555.36 167.66L556.5 168.84L557.68 169.97L558.9 171.06L560.16 172.11L561.47 173.1L562.81 174.05L564.19 174.94L565.61 175.78L567.06 176.57L568.54 177.3L570.06 177.98L571.61 178.6L573.18 179.16L574.78 179.66L576.41 180.09L578.07 180.47L579.75 180.77L581.45 181.02L583.17 181.19L584.91 181.3L586.67 181.33L597.33 181.33L597.33 266.67L586.67 266.67L584.91 266.7L583.17 266.81L581.45 266.98L579.75 267.22L578.07 267.53L576.41 267.91L574.78 268.34L573.18 268.84L571.61 269.4L570.06 270.02L568.54 270.7L567.06 271.43L565.61 272.22L564.19 273.06L562.81 273.95L561.47 274.9L560.16 275.89L558.9 276.94L557.68 278.03L556.5 279.16L555.36 280.34L554.27 281.57L553.23 282.83L552.23 284.14L551.29 285.48L550.39 286.86L549.55 288.28L548.76 289.73L548.03 291.21L547.35 292.73L546.73 294.27L546.18 295.85L545.68 297.45L545.24 299.08L544.87 300.73L544.56 302.41L544.32 304.11L544.14 305.83L544.04 307.57L544 309.33L544 320L288 320L288 309.33L287.96 307.57L287.86 305.83L287.68 304.11L287.44 302.41L287.13 300.73L286.76 299.08L286.32 297.45L285.82 295.85L285.27 294.27L284.65 292.73L283.97 291.21L283.24 289.73L282.45 288.28L281.61 286.86L280.71 285.48L279.77 284.14L278.77 282.83L277.73 281.57L276.64 280.34L275.5 279.16L274.32 278.03L273.1 276.94L271.84 275.89L270.53 274.9L269.19 273.95L267.81 273.06L266.39 272.22L264.94 271.43L263.46 270.7L261.94 270.02L260.39 269.4L258.82 268.84L257.22 268.34L255.59 267.91L253.93 267.53L252.25 267.22L250.55 266.98L248.83 266.81L247.09 266.7L245.33 266.67L234.67 266.67L234.67 181.33L245.33 181.33L246.34 181.32L247.35 181.28L248.36 181.22L249.36 181.14L250.35 181.03L251.34 180.9L252.33 180.74L253.31 180.56L254.28 180.37L255.25 180.14L256.21 179.9L257.16 179.63L258.11 179.35L259.05 179.04L259.98 178.7L260.9 178.35L261.81 177.98L262.72 177.59L263.61 177.17L264.49 176.73L265.37 176.28L266.23 175.8L267.08 175.31L267.92 174.79L268.75 174.26L269.57 173.7L270.38 173.13L271.17 172.53L271.95 171.92L272.71 171.29L273.46 170.64L274.2 169.98L274.92 169.29L275.63 168.59L276.32 167.87L276.99 167.13L277.65 166.37L278.3 165.6L278.92 164.81L279.53 164L261.33 145.8L260.26 146.48L259.18 147.15L258.09 147.79L256.99 148.42L255.88 149.03L254.76 149.62L253.64 150.19L252.5 150.74L251.36 151.27L250.21 151.79L249.05 152.28L247.89 152.76L246.71 153.22L245.54 153.65L244.35 154.07L243.16 154.47L241.96 154.85L240.76 155.21L239.55 155.55L238.34 155.87L237.12 156.17L235.9 156.45L234.67 156.71L233.44 156.96L232.2 157.18L230.96 157.38L229.72 157.56L228.47 157.72L227.22 157.86L225.97 157.98L224.71 158.09L223.45 158.17L222.19 158.23L220.93 158.26L219.67 158.28L218.4 158.28L217.14 158.26L215.87 158.22L214.6 158.15L213.33 158.07L213.33 341.33L618.67 341.33L618.67 106.67L343.08 106.67L364.42 128ZM381.08 150.28L381.43 151.23L381.75 152.19L382.05 153.15L382.32 154.12L382.58 155.09L382.8 156.07L383.01 157.05L383.19 158.03L383.34 159.01L383.47 160L383.58 160.99L383.67 161.98L383.73 162.97L383.77 163.96L383.78 164.95L383.77 165.94L383.74 166.93L383.69 167.91L383.61 168.9L383.51 169.88L383.38 170.87L383.23 171.84L383.06 172.82L382.87 173.79L382.65 174.76L382.41 175.72L382.15 176.68L381.86 177.63L381.56 178.57L381.22 179.51L380.87 180.45L380.49 181.37L380.09 182.29L379.67 183.2L379.22 184.1L378.76 184.99L378.27 185.88L377.75 186.75L377.22 187.61L378.73 186.08L380.28 184.61L381.88 183.22L383.52 181.89L385.2 180.65L386.92 179.47L388.67 178.37L390.46 177.34L392.28 176.38L394.13 175.5L396 174.69L397.9 173.95L399.82 173.29L401.75 172.7L403.71 172.19L405.68 171.75L407.67 171.38L409.66 171.09L411.66 170.87L413.67 170.73L415.69 170.66L417.7 170.67L419.72 170.75L421.73 170.9L423.73 171.14L425.73 171.44L427.72 171.83L429.7 172.28L431.66 172.82L433.61 173.42L435.54 174.11L437.45 174.87L439.33 175.71L441.19 176.62L443.03 177.61L444.83 178.67L446.6 179.82L448.34 181.04L450.04 182.33L451.7 183.7L453.3 185.14L454.84 186.63L456.31 188.16L457.7 189.74L459.03 191.36L460.28 193.03L461.46 194.73L462.57 196.47L463.61 198.24L464.57 200.04L465.47 201.88L466.29 203.74L467.04 205.63L467.72 207.54L468.32 209.47L468.85 211.42L469.3 213.38L469.69 215.36L470 217.35L470.23 219.35L470.39 221.36L470.47 223.37L470.49 225.39L470.42 227.41L470.28 229.42L470.07 231.43L469.77 233.44L469.41 235.44L468.96 237.42L468.44 239.39L467.85 241.35L467.18 243.29L466.43 245.22L465.6 247.12L464.69 248.99L463.71 250.84L462.65 252.66L461.51 254.45L460.3 256.21L459 257.93L457.64 259.6L456.22 261.2L454.76 262.74L453.24 264.2L451.68 265.6L450.08 266.93L448.43 268.18L446.75 269.37L445.02 270.49L443.26 271.54L441.47 272.51L439.65 273.42L437.8 274.25L435.92 275.02L434.02 275.71L432.1 276.32L430.15 276.87L428.19 277.34L426.22 277.74L424.23 278.06L422.23 278.32L420.23 278.49L418.21 278.6L416.19 278.62L414.18 278.57L412.16 278.45L410.14 278.25L408.13 277.98L406.12 277.62L404.13 277.19L402.15 276.69L400.18 276.1L398.22 275.44L396.29 274.7L394.37 273.88L392.48 272.99L390.61 272.01L388.77 270.96L386.96 269.82L385.18 268.6L383.45 267.32L381.79 265.98L380.19 264.58L378.66 263.14L377.19 261.64L375.79 260.1L374.46 258.51L373.19 256.88L372 255.21L370.87 253.5L369.82 251.76L368.83 249.98L367.91 248.17L367.06 246.33L366.29 244.46L365.58 242.57L364.95 240.65L364.39 238.71L363.9 236.76L363.48 234.79L363.14 232.8L362.87 230.81L362.68 228.8L362.56 226.79L362.52 224.77L362.55 222.74L362.66 220.72L362.84 218.7L363.1 216.68L363.44 214.67L363.85 212.66L364.35 210.67L364.92 208.69L365.57 206.72L366.3 204.77L367.11 202.84L368 200.93L368.97 199.04L370.02 197.18L371.16 195.35L369.88 196.55L368.57 197.69L367.23 198.77L365.85 199.78L364.45 200.74L363.01 201.63L361.55 202.46L360.07 203.23L358.56 203.94L357.03 204.59L355.48 205.17L353.92 205.69L352.34 206.16L350.74 206.56L349.14 206.89L347.53 207.17L345.9 207.38L344.28 207.54L342.65 207.63L341.01 207.66L339.38 207.62L337.75 207.53L336.12 207.37L334.5 207.16L332.89 206.88L331.29 206.54L329.69 206.14L328.11 205.67L326.55 205.15L325 204.56L323.47 203.91L321.97 203.2L320.48 202.43L319.02 201.59L317.59 200.7L316.19 199.74L314.81 198.72L313.47 197.64L312.16 196.5L310.89 195.3L294.8 179.2L294.06 180.09L293.3 180.97L292.53 181.83L291.75 182.67L290.95 183.51L290.14 184.32L289.31 185.12L288.48 185.9L287.62 186.67L286.76 187.42L285.88 188.16L284.99 188.88L284.09 189.58L283.18 190.27L282.25 190.94L281.31 191.59L280.36 192.22L279.4 192.84L278.43 193.44L277.45 194.02L276.46 194.59L275.46 195.14L274.45 195.66L273.43 196.18L272.4 196.67L271.36 197.14L270.31 197.6L269.26 198.04L268.19 198.46L267.12 198.86L266.04 199.24L264.95 199.6L263.86 199.94L262.75 200.26L261.64 200.57L260.53 200.85L259.4 201.11L258.28 201.36L257.14 201.58L256 201.78L256 246.22L258 246.59L259.98 247.03L261.94 247.52L263.87 248.08L265.77 248.69L267.65 249.36L269.5 250.08L271.32 250.86L273.11 251.69L274.87 252.58L276.6 253.51L278.3 254.5L279.96 255.54L281.59 256.62L283.18 257.75L284.73 258.93L286.25 260.16L287.73 261.43L289.17 262.74L290.57 264.1L291.92 265.5L293.24 266.94L294.51 268.41L295.73 269.93L296.91 271.49L298.05 273.08L299.13 274.71L300.17 276.37L301.16 278.07L302.09 279.79L302.98 281.55L303.81 283.35L304.59 285.17L305.31 287.02L305.98 288.9L306.59 290.8L307.14 292.73L307.64 294.69L308.07 296.66L308.45 298.67L523.55 298.67L523.93 296.66L524.36 294.69L524.86 292.73L525.41 290.8L526.02 288.9L526.69 287.02L527.41 285.17L528.19 283.35L529.02 281.55L529.91 279.79L530.84 278.07L531.83 276.37L532.87 274.71L533.95 273.08L535.09 271.49L536.27 269.93L537.49 268.41L538.76 266.94L540.08 265.5L541.43 264.1L542.83 262.74L544.27 261.43L545.75 260.16L547.27 258.93L548.82 257.75L550.41 256.62L552.04 255.54L553.7 254.5L555.4 253.51L557.13 252.58L558.89 251.69L560.68 250.86L562.5 250.08L564.35 249.36L566.23 248.69L568.13 248.08L570.06 247.52L572.02 247.03L574 246.59L576 246.22L576 201.78L574 201.41L572.02 200.97L570.06 200.48L568.13 199.92L566.23 199.31L564.35 198.64L562.5 197.92L560.68 197.14L558.89 196.31L557.13 195.42L555.4 194.49L553.7 193.5L552.04 192.46L550.41 191.38L548.82 190.25L547.27 189.07L545.75 187.84L544.27 186.57L542.83 185.26L541.43 183.9L540.08 182.5L538.76 181.06L537.49 179.59L536.27 178.07L535.09 176.51L533.95 174.92L532.87 173.29L531.83 171.63L530.84 169.93L529.91 168.21L529.02 166.44L528.19 164.65L527.41 162.83L526.69 160.98L526.02 159.1L525.41 157.2L524.86 155.27L524.36 153.31L523.93 151.34L523.55 149.33L380.71 149.33L381.08 150.28ZM413.38 192.11L412.08 192.24L410.81 192.42L409.55 192.65L408.31 192.93L407.09 193.26L405.89 193.63L404.7 194.05L403.54 194.51L402.41 195.02L401.29 195.57L400.21 196.16L399.14 196.79L398.11 197.47L397.1 198.17L396.12 198.92L395.18 199.7L394.26 200.52L393.37 201.37L392.52 202.26L391.7 203.18L390.92 204.12L390.17 205.1L389.47 206.11L388.79 207.14L388.16 208.21L387.57 209.29L387.02 210.41L386.51 211.54L386.05 212.7L385.63 213.89L385.26 215.09L384.93 216.31L384.65 217.55L384.42 218.81L384.24 220.08L384.11 221.38L384.03 222.68L384 224L384.03 225.32L384.11 226.62L384.24 227.91L384.42 229.19L384.65 230.45L384.93 231.69L385.26 232.91L385.63 234.11L386.05 235.3L386.51 236.46L387.02 237.59L387.57 238.71L388.16 239.79L388.79 240.86L389.47 241.89L390.17 242.9L390.92 243.88L391.7 244.82L392.52 245.74L393.37 246.63L394.26 247.48L395.18 248.3L396.12 249.08L397.1 249.83L398.11 250.53L399.14 251.21L400.21 251.84L401.29 252.43L402.41 252.98L403.54 253.48L404.7 253.95L405.89 254.37L407.09 254.74L408.31 255.07L409.55 255.35L410.81 255.58L412.08 255.76L413.38 255.89L414.68 255.97L416 256L417.32 255.97L418.62 255.89L419.92 255.76L421.19 255.58L422.45 255.35L423.69 255.07L424.91 254.74L426.11 254.37L427.3 253.95L428.46 253.48L429.59 252.98L430.71 252.43L431.79 251.84L432.86 251.21L433.89 250.53L434.9 249.83L435.88 249.08L436.82 248.3L437.74 247.48L438.63 246.63L439.48 245.74L440.3 244.82L441.08 243.88L441.83 242.9L442.53 241.89L443.21 240.86L443.84 239.79L444.43 238.71L444.98 237.59L445.49 236.46L445.95 235.3L446.37 234.11L446.74 232.91L447.07 231.69L447.35 230.45L447.58 229.19L447.76 227.91L447.89 226.62L447.97 225.32L448 224L447.97 222.68L447.89 221.38L447.76 220.08L447.58 218.81L447.35 217.55L447.07 216.31L446.74 215.09L446.37 213.89L445.95 212.7L445.49 211.54L444.98 210.41L444.43 209.29L443.84 208.21L443.21 207.14L442.53 206.11L441.83 205.1L441.08 204.12L440.3 203.18L439.48 202.26L438.63 201.37L437.74 200.52L436.82 199.7L435.88 198.92L434.9 198.17L433.89 197.47L432.86 196.79L431.79 196.16L430.71 195.57L429.59 195.02L428.46 194.51L427.3 194.05L426.11 193.63L424.91 193.26L423.69 192.93L422.45 192.65L421.19 192.42L419.92 192.24L418.62 192.11L417.32 192.03L416 192L414.68 192.03L413.38 192.11ZM21.33 213.33L85.33 213.33L85.33 21.33L21.33 21.33L21.33 213.33ZM180.36 21.34L179.99 21.34L179.62 21.35L179.24 21.37L178.87 21.39L178.5 21.41L178.13 21.44L177.76 21.47L177.39 21.51L177.02 21.55L176.65 21.59L176.29 21.64L175.92 21.7L175.55 21.75L175.19 21.82L174.82 21.88L174.46 21.95L174.09 22.03L173.73 22.11L173.37 22.19L173.01 22.28L172.65 22.37L172.29 22.46L171.94 22.56L171.58 22.67L171.22 22.77L170.87 22.89L170.52 23L170.17 23.12L169.82 23.25L169.47 23.38L169.12 23.51L168.78 23.64L168.43 23.79L168.09 23.93L167.75 24.08L167.41 24.23L167.07 24.39L166.74 24.55L166.4 24.71L142.52 36.67L141.91 36.97L141.31 37.25L140.7 37.53L140.09 37.81L139.48 38.07L138.86 38.33L138.24 38.57L137.62 38.81L137 39.05L136.37 39.27L135.74 39.49L135.11 39.7L134.47 39.9L133.84 40.09L133.2 40.27L132.56 40.45L131.91 40.62L131.27 40.78L130.62 40.93L129.97 41.08L129.32 41.22L128.67 41.34L128.01 41.47L127.36 41.58L126.7 41.68L126.04 41.78L125.38 41.87L124.72 41.95L124.06 42.02L123.4 42.08L122.73 42.14L122.07 42.18L121.4 42.22L120.74 42.25L120.07 42.27L119.4 42.29L118.73 42.29L118.06 42.29L117.39 42.28L116.72 42.26L106.67 41.9L106.67 181.33L131.2 181.33L143.06 189.18L144.16 189.9L145.26 190.6L146.38 191.29L147.5 191.96L148.63 192.61L149.77 193.25L150.91 193.87L152.07 194.48L153.23 195.07L154.4 195.64L155.57 196.2L156.75 196.75L157.94 197.27L159.14 197.78L160.34 198.27L161.55 198.75L162.76 199.21L163.98 199.66L165.21 200.08L166.44 200.5L167.68 200.89L168.92 201.27L170.17 201.63L171.42 201.97L172.68 202.3L173.94 202.61L175.21 202.9L176.48 203.18L177.76 203.44L179.04 203.68L180.32 203.9L181.6 204.11L182.89 204.3L184.19 204.47L185.48 204.63L186.78 204.77L188.08 204.89L189.39 204.99L190.69 205.07L192 205.14L192 153.6L191.41 153.38L190.83 153.16L190.24 152.93L189.66 152.7L189.08 152.46L188.5 152.22L187.93 151.97L187.35 151.72L186.78 151.46L186.21 151.2L185.64 150.94L185.08 150.67L184.52 150.4L183.95 150.12L183.4 149.83L182.84 149.55L182.29 149.26L181.74 148.96L181.19 148.66L180.64 148.35L180.1 148.04L179.56 147.73L179.02 147.41L178.48 147.09L177.95 146.76L177.42 146.43L176.89 146.1L176.36 145.76L175.84 145.41L175.32 145.07L174.8 144.71L174.29 144.36L173.77 144L173.27 143.63L172.76 143.26L172.26 142.89L171.76 142.51L171.26 142.13L170.76 141.74L170.27 141.35L164.02 136.29L177.46 119.71L183.65 124.72L185.25 125.96L186.88 127.13L188.55 128.23L190.24 129.27L191.96 130.25L193.7 131.16L195.47 132L197.26 132.78L199.07 133.5L200.9 134.15L202.74 134.73L204.6 135.25L206.47 135.71L208.35 136.1L210.25 136.43L212.15 136.69L214.05 136.89L215.96 137.02L217.87 137.09L219.79 137.09L221.7 137.03L223.61 136.91L225.51 136.72L227.41 136.47L229.3 136.15L231.19 135.76L233.06 135.32L234.91 134.81L236.76 134.23L238.58 133.59L240.39 132.89L242.18 132.12L243.94 131.29L245.68 130.39L247.4 129.43L249.09 128.4L250.75 127.31L252.38 126.16L253.98 124.94L255.54 123.66L263.01 117.26L325.94 180.19L326.58 180.8L327.24 181.38L327.91 181.93L328.6 182.44L329.3 182.93L330.02 183.38L330.76 183.8L331.5 184.19L332.26 184.55L333.03 184.88L333.81 185.17L334.59 185.44L335.39 185.67L336.19 185.87L336.99 186.04L337.8 186.18L338.62 186.29L339.44 186.37L340.26 186.41L341.08 186.43L341.9 186.41L342.72 186.36L343.54 186.28L344.35 186.17L345.16 186.03L345.97 185.85L346.77 185.65L347.56 185.41L348.35 185.14L349.13 184.84L349.89 184.51L350.65 184.15L351.39 183.76L352.12 183.33L352.84 182.88L353.55 182.39L354.23 181.87L354.9 181.32L355.56 180.74L356.19 180.13L356.8 179.49L357.38 178.84L357.93 178.16L358.44 177.47L358.93 176.77L359.38 176.05L359.8 175.31L360.19 174.57L360.55 173.81L360.88 173.04L361.17 172.26L361.44 171.48L361.67 170.68L361.87 169.88L362.04 169.08L362.18 168.26L362.29 167.45L362.37 166.63L362.41 165.81L362.43 164.99L362.41 164.17L362.36 163.35L362.28 162.53L362.17 161.72L362.03 160.91L361.85 160.1L361.65 159.3L361.41 158.51L361.14 157.72L360.84 156.94L360.51 156.18L360.15 155.42L359.76 154.68L359.33 153.95L358.88 153.23L358.39 152.53L357.87 151.84L357.32 151.17L356.74 150.51L356.13 149.88L280.78 74.53L295.86 59.45L321.75 85.33L409.77 85.33L367.64 43.2L366.58 42.16L365.5 41.14L364.41 40.14L363.3 39.17L362.17 38.22L361.02 37.3L359.86 36.4L358.68 35.52L357.49 34.67L356.28 33.85L355.05 33.05L353.82 32.27L352.56 31.52L351.3 30.79L350.02 30.09L348.72 29.42L347.42 28.77L346.1 28.14L344.77 27.55L343.43 26.98L342.08 26.43L340.71 25.91L339.34 25.42L337.96 24.96L336.57 24.52L335.17 24.11L333.76 23.73L332.34 23.38L330.91 23.05L329.48 22.75L328.04 22.48L326.6 22.24L325.14 22.02L323.69 21.84L322.22 21.68L320.75 21.55L319.28 21.45L317.8 21.38L316.32 21.34L314.84 21.33L180.73 21.33L180.36 21.34Z" id="arwiAkmtH"></path></defs><g><g><g><use xlink:href="#bI2lroFZ" opacity="1" fill="#9bc9ff" fill-opacity="1"></use><g><use xlink:href="#bI2lroFZ" opacity="1" fill-opacity="0" stroke="#000000" stroke-width="1" stroke-opacity="0"></use></g></g><g><use xlink:href="#bXdJLSdya" opacity="1" fill="#9bc9ff" fill-opacity="1"></use><g><use xlink:href="#bXdJLSdya" opacity="1" fill-opacity="0" stroke="#000000" stroke-width="1" stroke-opacity="0"></use></g></g><g><use xlink:href="#a1zgfzh9r9" opacity="1" fill="#9bc9ff" fill-opacity="1"></use><g><use xlink:href="#a1zgfzh9r9" opacity="1" fill-opacity="0" stroke="#000000" stroke-width="1" stroke-opacity="0"></use></g></g><g><use xlink:href="#arwiAkmtH" opacity="1" fill="#1e81ce" fill-opacity="1"></use><g><use xlink:href="#arwiAkmtH" opacity="1" fill-opacity="0" stroke="#000000" stroke-width="1" stroke-opacity="0"></use></g></g></g></g></svg>
