<svg version="1.1" xmlns="http://www.w3.org/2000/svg" xmlns:xlink="http://www.w3.org/1999/xlink" preserveAspectRatio="xMidYMid meet" viewBox="0 0 640 640" width="640" height="640"><defs><path d="M544 629.33L544 437.33L629.33 437.33L629.33 629.33L544 629.33Z" id="aKLG0afof"></path><path d="M533.33 640L533.33 623.91L502.04 636.27L501.57 636.45L501.1 636.63L500.63 636.8L500.15 636.97L499.68 637.13L499.2 637.3L498.72 637.45L498.25 637.6L497.77 637.75L497.28 637.89L496.8 638.03L496.32 638.16L495.83 638.29L495.35 638.41L494.86 638.53L494.37 638.65L493.88 638.76L493.39 638.86L492.9 638.96L492.41 639.06L491.92 639.15L491.43 639.24L490.93 639.32L490.44 639.4L489.94 639.47L489.44 639.54L488.95 639.6L488.45 639.66L487.95 639.72L487.45 639.77L486.95 639.81L486.45 639.85L485.95 639.89L485.45 639.92L484.95 639.94L484.44 639.96L483.94 639.98L483.44 639.99L482.94 640L482.43 640L332.14 640L331.4 639.99L330.65 639.98L329.91 639.95L329.17 639.92L328.43 639.87L327.69 639.81L326.96 639.75L326.22 639.67L325.49 639.58L324.75 639.49L324.02 639.38L323.29 639.26L322.57 639.13L321.84 639L321.12 638.85L320.4 638.69L319.68 638.52L318.97 638.35L318.25 638.16L317.54 637.96L316.84 637.76L316.13 637.54L315.43 637.31L314.73 637.08L314.04 636.83L313.35 636.58L312.66 636.31L311.97 636.04L311.29 635.76L310.61 635.46L309.94 635.16L309.27 634.85L308.6 634.53L307.94 634.19L307.28 633.85L306.63 633.5L305.98 633.14L305.34 632.78L304.7 632.4L304.06 632.01L109.86 515.82L108.89 515.23L107.93 514.63L106.99 514L106.08 513.34L105.18 512.67L104.3 511.97L103.45 511.25L102.61 510.52L101.8 509.76L101.01 508.98L100.24 508.18L99.49 507.36L98.77 506.53L98.07 505.67L97.39 504.8L96.73 503.92L96.1 503.01L95.49 502.1L94.91 501.16L94.35 500.21L93.82 499.25L93.31 498.27L92.82 497.28L92.37 496.28L91.94 495.27L91.53 494.24L91.15 493.2L90.8 492.15L90.48 491.1L90.18 490.03L89.91 488.95L89.67 487.86L89.46 486.77L89.27 485.67L89.12 484.56L88.99 483.44L88.89 482.32L88.83 481.19L88.79 480.06L88.78 478.92L88.79 478.36L88.8 477.81L88.81 477.25L88.84 476.69L88.87 476.14L88.91 475.58L88.96 475.03L89.01 474.48L89.07 473.93L89.14 473.37L89.22 472.82L89.3 472.28L89.39 471.73L89.49 471.18L89.59 470.64L89.7 470.1L89.82 469.56L89.94 469.02L90.08 468.48L90.21 467.94L90.36 467.41L90.51 466.88L90.67 466.35L90.84 465.82L91.01 465.29L91.19 464.77L91.38 464.25L91.57 463.73L91.77 463.21L91.98 462.69L92.19 462.18L92.42 461.67L92.64 461.17L92.88 460.66L93.12 460.16L93.37 459.66L93.62 459.17L93.88 458.67L94.15 458.18L94.42 457.7L94.74 457.14L95.07 456.6L95.41 456.05L95.75 455.52L96.11 454.98L96.47 454.46L96.84 453.94L97.21 453.43L97.6 452.92L97.99 452.42L98.38 451.92L98.79 451.43L99.2 450.95L99.62 450.48L100.05 450.01L100.48 449.55L100.92 449.09L101.37 448.64L101.82 448.2L102.28 447.76L102.75 447.34L103.22 446.91L103.7 446.5L104.19 446.09L104.68 445.69L105.18 445.3L105.68 444.92L106.19 444.54L106.71 444.17L107.23 443.81L107.75 443.45L108.29 443.11L108.83 442.77L109.37 442.44L109.92 442.12L110.47 441.8L111.03 441.5L111.6 441.2L112.17 440.91L112.74 440.63L113 440.5L113.26 440.38L113.52 440.26L113.77 440.14L114.03 440.02L114.29 439.9L114.56 439.79L114.82 439.68L115.08 439.57L115.34 439.46L115.61 439.35L115.87 439.25L116.14 439.14L116.4 439.04L116.67 438.94L116.94 438.84L117.21 438.75L117.47 438.66L117.74 438.56L118.01 438.47L118.28 438.39L118.56 438.3L118.83 438.22L119.1 438.13L119.37 438.05L119.65 437.98L119.92 437.9L120.19 437.83L120.47 437.75L120.75 437.68L121.02 437.62L121.3 437.55L121.58 437.48L121.85 437.42L122.13 437.36L122.41 437.3L122.69 437.25L122.97 437.19L123.25 437.14L123.53 437.09L124.28 436.95L125.02 436.83L125.77 436.72L126.52 436.62L127.27 436.54L128.02 436.47L128.77 436.42L129.52 436.37L130.27 436.35L131.02 436.33L131.76 436.33L132.51 436.34L133.26 436.36L134.01 436.4L134.75 436.45L135.5 436.51L136.24 436.59L136.98 436.68L137.72 436.78L138.46 436.89L139.19 437.02L139.93 437.16L140.66 437.32L141.39 437.48L142.11 437.66L142.83 437.86L143.55 438.06L144.27 438.28L144.98 438.51L145.69 438.75L146.39 439.01L147.09 439.28L147.79 439.56L148.48 439.85L149.17 440.16L149.85 440.48L150.53 440.81L151.2 441.15L151.87 441.51L152.53 441.88L260.89 500.5L261.25 499.52L261.64 498.55L262.05 497.59L262.48 496.65L262.93 495.72L263.41 494.8L263.9 493.9L264.42 493.01L264.96 492.13L265.51 491.27L266.09 490.42L266.69 489.59L267.3 488.78L267.93 487.97L268.59 487.19L269.25 486.42L269.94 485.67L270.65 484.93L271.37 484.21L272.11 483.51L272.86 482.83L273.63 482.16L274.42 481.52L275.22 480.89L276.04 480.28L276.87 479.69L277.72 479.12L278.58 478.56L279.45 478.03L280.34 477.52L281.24 477.03L282.16 476.56L283.08 476.11L284.02 475.69L284.97 475.28L285.93 474.9L286.91 474.54L287.89 474.2L288.89 473.89L289.89 473.6L413.08 440.53L413.69 440.37L414.29 440.22L414.9 440.07L415.51 439.92L416.12 439.78L416.74 439.64L417.35 439.51L417.96 439.38L418.58 439.25L419.19 439.13L419.81 439.01L420.42 438.9L421.04 438.79L421.66 438.68L422.27 438.58L422.89 438.48L423.51 438.38L424.13 438.29L424.75 438.21L425.37 438.13L425.99 438.05L426.62 437.97L427.24 437.9L427.86 437.84L428.49 437.77L429.11 437.72L429.73 437.66L430.36 437.61L430.98 437.57L431.61 437.53L432.23 437.49L432.86 437.45L433.49 437.43L434.11 437.4L434.74 437.38L435.37 437.36L435.99 437.35L436.62 437.34L437.25 437.33L437.87 437.33L478.76 437.33L479.48 437.34L480.21 437.35L480.93 437.38L481.65 437.41L482.37 437.46L483.09 437.51L483.81 437.57L484.52 437.65L485.24 437.73L485.95 437.82L486.66 437.92L487.37 438.03L488.08 438.16L488.79 438.29L489.49 438.43L490.19 438.57L490.89 438.73L491.59 438.9L492.28 439.08L492.98 439.26L493.67 439.46L494.35 439.66L495.04 439.88L495.72 440.1L496.4 440.33L497.08 440.58L497.75 440.83L498.42 441.09L499.09 441.36L499.75 441.63L500.41 441.92L501.06 442.22L501.71 442.52L502.36 442.84L503.01 443.16L503.65 443.49L504.28 443.83L504.92 444.18L505.54 444.54L506.17 444.91L533.33 461.18L533.33 426.67L640 426.67L640 640L533.33 640ZM131.32 457.7L131.21 457.7L131.11 457.7L131.01 457.7L130.9 457.71L130.8 457.71L130.7 457.71L130.6 457.72L130.49 457.72L130.39 457.73L130.29 457.73L130.19 457.74L130.08 457.75L129.98 457.75L129.88 457.76L129.78 457.77L129.67 457.78L129.57 457.78L129.47 457.79L129.37 457.8L129.26 457.81L129.16 457.82L129.06 457.84L128.96 457.85L128.86 457.86L128.75 457.87L128.65 457.89L128.55 457.9L128.45 457.91L128.35 457.93L128.24 457.94L128.14 457.96L128.04 457.97L127.94 457.99L127.84 458.01L127.74 458.02L127.63 458.04L127.53 458.06L127.43 458.08L127.29 458.1L127.16 458.13L127.02 458.15L126.88 458.18L126.74 458.21L126.6 458.24L126.47 458.27L126.33 458.3L126.19 458.34L126.06 458.37L125.92 458.4L125.78 458.44L125.65 458.47L125.51 458.51L125.38 458.55L125.24 458.59L125.11 458.63L124.97 458.67L124.84 458.71L124.71 458.75L124.57 458.8L124.44 458.84L124.31 458.89L124.18 458.94L124.04 458.98L123.91 459.03L123.78 459.08L123.65 459.13L123.52 459.18L123.39 459.24L123.26 459.29L123.13 459.34L123 459.4L122.87 459.45L122.74 459.51L122.61 459.57L122.48 459.63L122.35 459.69L122.23 459.75L122.1 459.81L121.81 459.95L121.53 460.09L121.25 460.24L120.97 460.39L120.69 460.54L120.42 460.7L120.15 460.87L119.88 461.03L119.61 461.2L119.35 461.38L119.09 461.56L118.83 461.74L118.57 461.93L118.32 462.12L118.07 462.31L117.83 462.51L117.59 462.71L117.35 462.92L117.11 463.13L116.88 463.34L116.65 463.55L116.42 463.77L116.2 464L115.97 464.22L115.76 464.45L115.54 464.68L115.33 464.92L115.13 465.16L114.93 465.4L114.73 465.65L114.53 465.9L114.34 466.15L114.15 466.4L113.96 466.66L113.78 466.92L113.61 467.18L113.43 467.45L113.26 467.72L113.1 467.99L112.94 468.27L112.8 468.51L112.67 468.76L112.53 469L112.41 469.25L112.28 469.5L112.16 469.76L112.04 470.01L111.93 470.26L111.82 470.52L111.71 470.78L111.6 471.04L111.5 471.3L111.41 471.56L111.31 471.82L111.22 472.08L111.13 472.35L111.05 472.61L110.97 472.88L110.89 473.15L110.82 473.42L110.75 473.68L110.68 473.95L110.62 474.23L110.56 474.5L110.5 474.77L110.45 475.04L110.4 475.32L110.35 475.59L110.31 475.87L110.27 476.14L110.23 476.42L110.2 476.7L110.17 476.98L110.15 477.25L110.13 477.53L110.11 477.81L110.1 478.09L110.09 478.37L110.08 478.65L110.08 478.93L110.08 479.5L110.1 480.07L110.14 480.64L110.18 481.2L110.25 481.76L110.33 482.32L110.42 482.87L110.53 483.42L110.65 483.97L110.78 484.51L110.93 485.04L111.1 485.58L111.27 486.1L111.46 486.62L111.67 487.14L111.88 487.65L112.12 488.15L112.36 488.65L112.61 489.14L112.88 489.62L113.16 490.1L113.46 490.57L113.76 491.03L114.08 491.48L114.41 491.93L114.75 492.36L115.1 492.79L115.47 493.21L115.84 493.62L116.23 494.02L116.63 494.41L117.04 494.79L117.46 495.16L117.89 495.52L118.33 495.87L118.78 496.21L119.24 496.54L119.71 496.86L120.19 497.16L120.68 497.45L315.15 613.78L315.53 614.02L315.92 614.25L316.31 614.47L316.7 614.69L317.09 614.91L317.49 615.11L317.89 615.32L318.29 615.51L318.7 615.7L319.1 615.89L319.51 616.07L319.93 616.24L320.34 616.41L320.76 616.57L321.18 616.73L321.6 616.88L322.02 617.02L322.44 617.16L322.87 617.29L323.3 617.42L323.73 617.54L324.16 617.65L324.59 617.76L325.03 617.86L325.47 617.96L325.9 618.05L326.34 618.13L326.78 618.21L327.22 618.28L327.67 618.35L328.11 618.41L328.55 618.46L329 618.51L329.45 618.55L329.89 618.59L330.34 618.61L330.79 618.64L331.24 618.65L331.69 618.66L332.14 618.67L482.46 618.67L482.76 618.66L483.07 618.66L483.37 618.65L483.67 618.64L483.97 618.63L484.27 618.61L484.57 618.59L484.87 618.57L485.17 618.55L485.47 618.52L485.76 618.49L486.06 618.46L486.36 618.42L486.66 618.39L486.96 618.34L487.25 618.3L487.55 618.25L487.85 618.2L488.14 618.15L488.44 618.1L488.73 618.04L489.02 617.98L489.32 617.92L489.61 617.85L489.9 617.78L490.19 617.71L490.49 617.64L490.78 617.56L491.06 617.48L491.35 617.4L491.64 617.31L491.93 617.23L492.22 617.13L492.5 617.04L492.79 616.95L493.07 616.85L493.35 616.75L493.64 616.64L493.92 616.54L494.2 616.43L533.33 600.96L533.33 486.05L495.2 463.21L494.82 462.99L494.45 462.78L494.07 462.57L493.69 462.36L493.3 462.16L492.92 461.97L492.53 461.78L492.14 461.6L491.75 461.42L491.35 461.25L490.95 461.08L490.55 460.92L490.15 460.76L489.75 460.61L489.34 460.47L488.94 460.33L488.53 460.19L488.12 460.07L487.7 459.94L487.29 459.82L486.87 459.71L486.46 459.61L486.04 459.51L485.62 459.41L485.2 459.32L484.78 459.24L484.35 459.16L483.93 459.09L483.5 459.02L483.07 458.96L482.65 458.9L482.22 458.85L481.79 458.81L481.36 458.77L480.93 458.74L480.49 458.71L480.06 458.69L479.63 458.68L479.19 458.67L478.76 458.67L437.87 458.67L437.39 458.67L436.9 458.67L436.41 458.68L435.92 458.69L435.44 458.71L434.95 458.72L434.46 458.74L433.98 458.77L433.49 458.8L433 458.83L432.52 458.86L432.03 458.9L431.55 458.94L431.06 458.98L430.58 459.03L430.09 459.07L429.61 459.13L429.12 459.18L428.64 459.24L428.16 459.3L427.67 459.37L427.19 459.44L426.71 459.51L426.23 459.58L425.75 459.66L425.27 459.74L424.79 459.83L424.31 459.91L423.83 460L423.35 460.1L422.87 460.19L422.4 460.29L421.92 460.4L421.45 460.5L420.97 460.61L420.5 460.72L420.02 460.84L419.55 460.96L419.08 461.08L418.6 461.2L295.47 494.15L294.83 494.34L294.19 494.54L293.57 494.77L292.95 495.01L292.35 495.28L291.76 495.56L291.17 495.85L290.6 496.17L290.04 496.5L289.49 496.84L288.95 497.2L288.43 497.58L287.91 497.97L287.41 498.38L286.93 498.8L286.45 499.24L285.99 499.68L285.54 500.15L285.11 500.62L284.69 501.11L284.29 501.61L283.9 502.12L283.52 502.64L283.17 503.17L282.82 503.72L282.5 504.27L282.19 504.84L281.89 505.41L281.62 506L281.36 506.59L281.12 507.19L280.89 507.81L280.69 508.43L280.5 509.05L280.33 509.69L280.18 510.33L280.05 510.98L279.94 511.63L279.85 512.29L279.78 512.96L279.77 513.03L279.76 513.11L279.76 513.19L279.76 513.28L279.75 513.37L279.75 513.46L279.75 513.57L279.74 513.67L279.74 513.78L279.74 513.89L279.74 514L279.74 514.11L279.74 514.23L279.74 514.34L279.74 514.46L279.74 514.58L279.74 514.7L279.74 514.81L279.74 514.93L279.74 515.04L279.75 515.16L279.75 515.27L279.75 515.37L279.75 515.48L279.75 515.58L279.76 515.68L279.76 515.78L279.76 515.87L279.76 515.95L279.76 516.03L279.77 516.1L279.77 516.17L279.77 516.23L279.77 516.29L279.77 516.33L279.77 516.37L279.77 516.41L279.78 516.45L279.78 516.55L279.79 516.65L279.79 516.75L279.8 516.85L279.81 516.95L279.82 517.05L279.83 517.15L279.84 517.25L279.85 517.35L279.86 517.45L279.87 517.54L279.88 517.64L279.89 517.74L279.9 517.84L279.91 517.94L279.93 518.04L279.94 518.14L279.95 518.24L279.97 518.34L279.98 518.44L280 518.54L280.02 518.63L280.03 518.73L280.05 518.83L280.07 518.93L280.09 519.03L280.1 519.13L280.12 519.23L280.14 519.32L280.16 519.42L280.19 519.52L280.21 519.62L280.23 519.71L280.25 519.81L280.27 519.91L280.3 520.01L280.32 520.1L280.35 520.2L280.37 520.3L280.4 520.4L280.6 521.09L280.82 521.77L281.06 522.44L281.33 523.09L281.61 523.74L281.92 524.37L282.25 524.99L282.59 525.6L282.95 526.19L283.33 526.77L283.73 527.34L284.15 527.89L284.58 528.43L285.03 528.95L285.49 529.45L285.97 529.95L286.47 530.42L286.98 530.88L287.51 531.32L288.04 531.74L288.6 532.15L289.16 532.54L289.74 532.91L290.33 533.26L290.93 533.59L291.54 533.91L292.16 534.2L292.79 534.48L293.43 534.73L294.09 534.97L294.75 535.18L295.41 535.37L296.09 535.54L296.78 535.69L297.47 535.82L298.17 535.92L298.87 536.01L299.58 536.06L300.3 536.1L301.02 536.11L301.12 536.1L301.25 536.08L301.39 536.07L301.55 536.04L301.72 536.02L301.91 535.99L302.12 535.95L302.34 535.91L302.57 535.87L302.82 535.83L303.08 535.78L303.35 535.73L303.64 535.68L303.93 535.62L304.24 535.56L304.55 535.5L304.88 535.44L305.21 535.37L305.55 535.3L305.9 535.23L306.25 535.16L306.61 535.09L306.98 535.01L307.35 534.93L307.72 534.86L308.1 534.78L308.48 534.7L308.87 534.61L309.25 534.53L309.64 534.45L310.03 534.36L310.42 534.28L310.8 534.19L311.19 534.11L311.58 534.02L311.96 533.94L312.34 533.85L312.71 533.77L313.09 533.68L313.45 533.6L423.92 504.07L429.42 524.68L318.59 554.34L318.16 554.45L317.73 554.57L317.3 554.68L316.86 554.79L316.43 554.89L315.99 555L315.56 555.1L315.12 555.2L314.69 555.3L314.25 555.4L313.82 555.5L313.38 555.59L312.94 555.69L312.5 555.78L312.07 555.86L311.63 555.95L311.19 556.04L310.75 556.12L310.31 556.2L309.87 556.28L309.43 556.36L308.99 556.43L308.55 556.51L308.11 556.58L307.67 556.65L307.23 556.72L306.78 556.78L306.34 556.85L305.9 556.91L305.46 556.97L305.01 557.03L304.57 557.09L304.13 557.14L303.68 557.2L303.24 557.25L302.8 557.3L302.35 557.34L301.91 557.39L301.46 557.43L301.02 557.47L299.57 557.45L298.14 557.37L296.72 557.25L295.31 557.09L293.91 556.87L292.53 556.62L291.16 556.32L289.8 555.97L288.46 555.58L287.14 555.15L285.84 554.68L284.55 554.16L283.29 553.61L282.04 553.02L280.82 552.38L279.62 551.71L278.44 551.01L277.29 550.26L276.16 549.48L275.05 548.66L273.98 547.81L272.93 546.92L271.91 546L270.92 545.05L269.96 544.07L269.03 543.05L268.13 542L267.26 540.93L266.43 539.82L265.64 538.69L264.88 537.52L264.15 536.33L263.47 535.11L262.82 533.87L262.21 532.6L261.64 531.31L261.11 529.99L260.62 528.65L260.18 527.29L259.78 525.9L259.76 525.85L259.75 525.8L259.74 525.75L259.73 525.71L259.72 525.66L259.71 525.61L259.7 525.56L259.69 525.51L259.68 525.46L259.67 525.41L259.67 525.37L259.66 525.32L259.65 525.27L259.65 525.22L259.64 525.17L259.63 525.12L259.63 525.07L259.62 525.03L259.61 524.98L259.61 524.93L259.6 524.88L259.59 524.78L259.59 524.74L259.58 524.69L259.57 524.64L259.57 524.59L259.56 524.54L259.56 524.49L259.55 524.44L259.54 524.4L259.54 524.35L259.53 524.3L259.52 524.25L259.51 524.2L259.51 524.15L259.5 524.1L259.49 524.06L259.48 524.01L259.47 523.96L141.97 460.47L141.73 460.33L141.49 460.2L141.25 460.07L141.01 459.95L140.76 459.83L140.51 459.71L140.27 459.59L140.02 459.48L139.77 459.37L139.51 459.27L139.26 459.16L139.01 459.06L138.75 458.97L138.49 458.88L138.23 458.79L137.98 458.7L137.72 458.62L137.45 458.54L137.19 458.47L136.93 458.4L136.67 458.33L136.4 458.26L136.13 458.2L135.87 458.14L135.6 458.09L135.33 458.04L135.06 457.99L134.79 457.95L134.52 457.91L134.25 457.87L133.98 457.84L133.71 457.81L133.44 457.78L133.17 457.76L132.89 457.74L132.62 457.72L132.34 457.71L132.07 457.7L131.8 457.7L131.59 457.7L131.42 457.7L131.32 457.7ZM554.67 618.67L618.67 618.67L618.67 448L554.67 448L554.67 618.67Z" id="a5sdsAAmIa"></path></defs><g><g><g><use xlink:href="#aKLG0afof" opacity="1" fill="#9bc9ff" fill-opacity="1"></use><g><use xlink:href="#aKLG0afof" opacity="1" fill-opacity="0" stroke="#000000" stroke-width="1" stroke-opacity="0"></use></g></g><g><use xlink:href="#a5sdsAAmIa" opacity="1" fill="#1e81ce" fill-opacity="1"></use><g><use xlink:href="#a5sdsAAmIa" opacity="1" fill-opacity="0" stroke="#000000" stroke-width="1" stroke-opacity="0"></use></g></g></g></g></svg>
